<svg width="84" height="13" viewBox="0 0 84 13" fill="none" xmlns="http://www.w3.org/2000/svg">
<path d="M5.46152 1.53676C5.71368 0.760697 6.8116 0.760698 7.06375 1.53676L7.96469 4.30957C8.07746 4.65664 8.40088 4.89162 8.76581 4.89162H11.6813C12.4973 4.89162 12.8366 5.93579 12.1764 6.41542L9.81774 8.12912C9.52251 8.34362 9.39897 8.72382 9.51174 9.07089L10.4127 11.8437C10.6648 12.6198 9.77661 13.2651 9.11645 12.7855L6.75775 11.0718C6.46252 10.8573 6.06275 10.8573 5.76752 11.0718L3.40882 12.7855C2.74867 13.2651 1.86044 12.6198 2.11259 11.8437L3.01354 9.07089C3.1263 8.72382 3.00277 8.34362 2.70754 8.12912L0.34884 6.41542C-0.311314 5.93579 0.0279604 4.89162 0.843956 4.89162H3.75947C4.12439 4.89162 4.44781 4.65664 4.56058 4.30957L5.46152 1.53676Z" fill="#FFC107"/>
<path d="M23.151 1.53682C23.4031 0.760758 24.501 0.760759 24.7532 1.53682L25.6541 4.30963C25.7669 4.6567 26.0903 4.89168 26.4553 4.89168H29.3708C30.1868 4.89168 30.526 5.93586 29.8659 6.41549L27.5072 8.12918C27.212 8.34368 27.0884 8.72388 27.2012 9.07095L28.1021 11.8438C28.3543 12.6198 27.4661 13.2652 26.8059 12.7855L24.4472 11.0718C24.152 10.8573 23.7522 10.8573 23.457 11.0718L21.0983 12.7855C20.4381 13.2652 19.5499 12.6198 19.802 11.8438L20.703 9.07095C20.8158 8.72388 20.6922 8.34368 20.397 8.12918L18.0383 6.41549C17.3781 5.93585 17.7174 4.89168 18.5334 4.89168H21.4489C21.8138 4.89168 22.1373 4.6567 22.25 4.30963L23.151 1.53682Z" fill="#FFC107"/>
<path d="M40.8402 1.53682C41.0923 0.760758 42.1903 0.760759 42.4424 1.53682L43.3434 4.30963C43.4561 4.6567 43.7795 4.89168 44.1445 4.89168H47.06C47.876 4.89168 48.2153 5.93586 47.5551 6.41549L45.1964 8.12918C44.9012 8.34368 44.7776 8.72388 44.8904 9.07095L45.7913 11.8438C46.0435 12.6198 45.1553 13.2652 44.4951 12.7855L42.1364 11.0718C41.8412 10.8573 41.4414 10.8573 41.1462 11.0718L38.7875 12.7855C38.1273 13.2652 37.2391 12.6198 37.4913 11.8438L38.3922 9.07095C38.505 8.72388 38.3814 8.34368 38.0862 8.12918L35.7275 6.41549C35.0673 5.93585 35.4066 4.89168 36.2226 4.89168H39.1381C39.5031 4.89168 39.8265 4.6567 39.9392 4.30963L40.8402 1.53682Z" fill="#FFC107"/>
<path d="M59.6563 1.69133L60.5573 4.46414C60.737 5.01722 61.2524 5.39168 61.8339 5.39168H64.7494C65.0811 5.39168 65.219 5.81605 64.9507 6.01098L62.592 7.72467C62.1215 8.06649 61.9246 8.67238 62.1043 9.22545L63.0053 11.9983C63.1077 12.3137 62.7468 12.576 62.4785 12.381L60.1198 10.6673C59.6493 10.3255 59.0122 10.3255 58.5417 10.6673L56.183 12.381C55.9147 12.5759 55.5538 12.3137 55.6562 11.9983L56.5572 9.22546C56.7369 8.67238 56.54 8.06649 56.0695 7.72467L53.7108 6.01098C53.4426 5.81605 53.5804 5.39168 53.9121 5.39168H56.8276C57.4091 5.39168 57.9245 5.01722 58.1042 4.46414L59.0052 1.69132C59.1076 1.37592 59.5539 1.37592 59.6563 1.69133Z" stroke="#FFC107"/>
<path d="M77.3451 1.69133L78.246 4.46414C78.4257 5.01722 78.9411 5.39168 79.5226 5.39168H82.4382C82.7698 5.39168 82.9077 5.81605 82.6394 6.01098L80.2807 7.72467C79.8102 8.06649 79.6133 8.67238 79.793 9.22545L80.694 11.9983C80.7965 12.3137 80.4355 12.576 80.1672 12.381L77.8085 10.6673C77.338 10.3255 76.7009 10.3255 76.2305 10.6673L73.8718 12.381C73.6035 12.5759 73.2425 12.3137 73.345 11.9983L74.2459 9.22546C74.4256 8.67238 74.2287 8.06649 73.7583 7.72467L71.3996 6.01098C71.1313 5.81605 71.2692 5.39168 71.6008 5.39168H74.5163C75.0978 5.39168 75.6132 5.01722 75.7929 4.46414L76.6939 1.69132C76.7964 1.37592 77.2426 1.37592 77.3451 1.69133Z" stroke="#FFC107"/>
</svg>
