<svg width="20" height="19" viewBox="0 0 20 19" fill="none" xmlns="http://www.w3.org/2000/svg">
<path d="M10.1477 7.57792V11.0289H15.1943C14.7246 13.222 12.7584 14.482 10.1477 14.482C8.68635 14.4629 7.29168 13.8982 6.26539 12.9102C5.2391 11.9222 4.66372 10.5902 4.66372 9.20243C4.66372 7.81466 5.2391 6.48269 6.26539 5.49466C7.29168 4.50663 8.68635 3.942 10.1477 3.9229C11.4117 3.92146 12.6367 4.33797 13.6125 5.1009L16.3506 2.50089C15.2082 1.54665 13.839 0.86986 12.3606 0.528589C10.8821 0.187319 9.33858 0.19176 7.86235 0.541533C6.38612 0.891306 5.02129 1.57597 3.88501 2.53676C2.74872 3.49755 1.87489 4.70579 1.33851 6.05779C0.802134 7.40979 0.619221 8.86518 0.805469 10.2991C0.991717 11.733 1.54156 13.1025 2.40783 14.2903C3.27409 15.478 4.4309 16.4484 5.77899 17.1182C7.12708 17.7881 8.6262 18.1373 10.1477 18.136C14.852 18.136 19.1298 14.887 19.1298 9.20193C19.1225 8.65457 19.0519 8.10962 18.9192 7.57692L10.1477 7.57792V7.57792Z" fill="#1D1B19"/>
</svg>
