<svg width="20" height="19" viewBox="0 0 20 19" fill="none" xmlns="http://www.w3.org/2000/svg">
<path d="M19.7914 5.59991C19.7808 4.84252 19.6315 4.09267 19.3502 3.38389C19.1062 2.78604 18.7336 2.24309 18.2562 1.78972C17.7787 1.33635 17.2069 0.982533 16.5773 0.750881C15.8405 0.488237 15.062 0.346221 14.2752 0.330879C13.262 0.287879 12.9408 0.275879 10.3691 0.275879C7.79738 0.275879 7.46775 0.275879 6.46201 0.330879C5.6755 0.346333 4.89743 0.488348 4.16093 0.750881C3.53122 0.982372 2.95934 1.33613 2.48186 1.78952C2.00439 2.24291 1.63184 2.78595 1.38805 3.38389C1.1109 4.08303 0.961666 4.82201 0.946792 5.5689C0.901508 6.53191 0.887817 6.83691 0.887817 9.27892C0.887817 11.7209 0.887817 12.0329 0.946792 12.9889C0.962589 13.7369 1.11108 14.4749 1.38805 15.176C1.63225 15.7737 2.00507 16.3165 2.48271 16.7697C2.96034 17.2229 3.53228 17.5765 4.16199 17.808C4.89647 18.0812 5.67467 18.2333 6.46307 18.258C7.47723 18.301 7.79843 18.314 10.3702 18.314C12.9419 18.314 13.2715 18.314 14.2773 18.258C15.0641 18.2433 15.8426 18.1016 16.5794 17.839C17.2088 17.607 17.7805 17.2531 18.2579 16.7998C18.7353 16.3465 19.108 15.8036 19.3523 15.206C19.6292 14.5059 19.7777 13.7679 19.7935 13.0189C19.8388 12.0569 19.8525 11.7519 19.8525 9.30892C19.8504 6.86691 19.8504 6.55691 19.7914 5.59991V5.59991ZM10.3628 13.8969C7.67311 13.8969 5.49419 11.8279 5.49419 9.27392C5.49419 6.71991 7.67311 4.6509 10.3628 4.6509C11.654 4.6509 12.8924 5.13797 13.8054 6.00495C14.7185 6.87194 15.2314 8.04782 15.2314 9.27392C15.2314 10.5 14.7185 11.6759 13.8054 12.5429C12.8924 13.4099 11.654 13.8969 10.3628 13.8969V13.8969ZM15.4252 5.5579C15.276 5.55804 15.1284 5.53024 14.9906 5.47611C14.8528 5.42199 14.7276 5.34259 14.6221 5.24246C14.5167 5.14233 14.433 5.02344 14.376 4.89259C14.319 4.76174 14.2898 4.6215 14.2899 4.4799C14.2899 4.3384 14.3192 4.19829 14.3763 4.06756C14.4333 3.93683 14.5169 3.81804 14.6223 3.71799C14.7276 3.61793 14.8527 3.53856 14.9904 3.48441C15.1281 3.43026 15.2756 3.40239 15.4246 3.40239C15.5737 3.40239 15.7212 3.43026 15.8589 3.48441C15.9966 3.53856 16.1217 3.61793 16.227 3.71799C16.3324 3.81804 16.416 3.93683 16.473 4.06756C16.53 4.19829 16.5594 4.3384 16.5594 4.4799C16.5594 5.0759 16.0518 5.5579 15.4252 5.5579Z" fill="#1D1B19"/>
<path d="M10.363 12.2771C12.1096 12.2771 13.5255 10.9326 13.5255 9.27405C13.5255 7.61551 12.1096 6.271 10.363 6.271C8.61636 6.271 7.20044 7.61551 7.20044 9.27405C7.20044 10.9326 8.61636 12.2771 10.363 12.2771Z" fill="#1D1B19"/>
</svg>
