<svg width="26" height="21" viewBox="0 0 26 21" fill="none" xmlns="http://www.w3.org/2000/svg">
<path d="M25.4004 2.65163C24.4709 3.04216 23.4594 3.32323 22.4176 3.43269C23.4992 2.80676 24.3093 1.8179 24.6957 0.65163C23.6806 1.23976 22.5687 1.65217 21.4091 1.87056C20.9245 1.36591 20.3383 0.963878 19.6872 0.689522C19.036 0.415166 18.3338 0.274365 17.6244 0.275891C14.7539 0.275891 12.4455 2.54216 12.4455 5.32323C12.4455 5.71376 12.4941 6.10429 12.573 6.48003C8.27497 6.26109 4.44165 4.2611 1.89319 1.19897C1.42883 1.9715 1.18549 2.85111 1.18849 3.7463C1.18849 5.49778 2.10278 7.04216 3.49699 7.95044C2.67536 7.91893 1.87297 7.69896 1.15508 7.30843V7.37056C1.15508 9.82322 2.93505 11.8558 5.30734 12.3232C4.86191 12.4359 4.4037 12.4936 3.9435 12.4948C3.60634 12.4948 3.2874 12.4623 2.96543 12.4179C3.62152 14.4179 5.53211 15.8706 7.8072 15.9179C6.02722 17.2759 3.7977 18.0747 1.37681 18.0747C0.942453 18.0747 0.541503 18.0599 0.125366 18.0126C2.42171 19.4475 5.14635 20.2759 8.08057 20.2759C17.6062 20.2759 22.8185 12.5895 22.8185 5.9179C22.8185 5.69896 22.8185 5.48003 22.8033 5.2611C23.8118 4.54216 24.6957 3.65163 25.4004 2.65163Z" fill="#1D1B19"/>
</svg>
